<?xml version="1.0" encoding="UTF-8"?>
<svg width="64" height="64" version="1.1" viewBox="0 0 16.933 16.933" xmlns="http://www.w3.org/2000/svg">
 <g transform="matrix(-.039361 0 0 -.039244 20.309 19.854)" fill="#D67F75">
  <path d="m85.759 271.81s3.9382-34.349 12.931-57.28c8.0613-20.555 21.914-44.548 35.708-61.438 14.035-17.186 31.86-32.883 52.512-45.948 19.262-12.186 32.754-17.788 42.469-21.202s29.997-8.4675 43.913-9.7803 38.99-3.6758 63.933 1.3128 44.438 10.437 64.13 21.464c19.692 11.027 48.44 30.399 65.506 52.979s24.157 32.812 31.246 50.141 15.293 36.974 17.853 69.751l-134.39-0.37132s-4.4375-17-11.658-28.29c-5.7444-8.9821-11.186-13.279-15.885-17.46-1.7257-1.5354-10.634-8.4018-16.541-11.421-5.5436-2.8334-15.622-6.4327-20.742-7.4829-5.1199-1.0502-11.596-1.7053-17.285-1.5747s-12.778 0.65574-16.847 1.4434c-4.0696 0.78768-15.885 4.726-21.792 7.7454s-11.027 6.4327-17.066 11.946c-6.0388 5.5137-13.916 14.834-16.541 19.561s-9.4663 20.17-9.853 25.904z"/>
  <path d="m515.96 308.55s-3.9382 34.349-12.931 57.28c-8.0613 20.555-21.914 44.548-35.708 61.438-14.035 17.186-31.86 32.883-52.512 45.948-19.262 12.186-32.754 17.788-42.469 21.202s-29.997 8.4675-43.913 9.7803-38.99 3.6758-63.933-1.3128-44.438-10.437-64.13-21.464-48.44-30.399-65.506-52.979-24.157-32.812-31.246-50.141-15.293-36.974-17.853-69.751l134.39 0.37132s4.4375 17 11.658 28.29c5.7444 8.9821 11.186 13.279 15.885 17.46 1.7257 1.5354 10.634 8.4018 16.541 11.421 5.5436 2.8334 15.622 6.4327 20.742 7.4829 5.1199 1.0502 11.596 1.7053 17.285 1.5747s12.778-0.65574 16.847-1.4434c4.0696-0.78768 15.885-4.726 21.792-7.7454s11.027-6.4327 17.066-11.946c6.0388-5.5137 13.916-14.834 16.541-19.561s9.4663-20.17 9.853-25.904z"/>
  <ellipse cx="302.37" cy="291.84" rx="49.397" ry="49.026"/>
 </g>
</svg>
